# xmcd CD database file
#
# Track frame offsets:
#	150
#	12559
#	21862
#
# Disc length: 602 seconds
#
# Revision: 0
# Processed by: cddbd v1.4PL0 Copyright (c) Steve Scherf et al.
# Submitted via: CDex 1.50Beta7
#
DISCID=1c025803
DTITLE=Dave's True Story - A Dave's True Story Christmas I
DYEAR=2002
DGENRE=Jazz
TTITLE0=Winter Wonderland
TTITLE1=Let It Snow
TTITLE2=This Christmas
EXTD=YEAR: 2002
EXTT0=
EXTT1=
EXTT2=
PLAYORDER=
